<?xml version="1.0" standalone="no"?>
<!DOCTYPE svg PUBLIC "-//W3C//DTD SVG 20010904//EN"
 "http://www.w3.org/TR/2001/REC-SVG-20010904/DTD/svg10.dtd">
<svg version="1.0" xmlns="http://www.w3.org/2000/svg"
 width="485.000000pt" height="515.000000pt" viewBox="0 0 485.000000 515.000000"
 preserveAspectRatio="xMidYMid meet">

<g transform="translate(0.000000,515.000000) scale(0.100000,-0.100000)"
fill="#ffffff" stroke="none">
<path d="M695 4888 c-3 -13 -53 -248 -111 -523 -57 -275 -159 -756 -225 -1070
-66 -313 -158 -750 -205 -970 -46 -220 -86 -410 -89 -422 l-5 -23 399 0 c220
0 402 3 404 8 3 4 56 251 118 550 l114 543 340 -3 c328 -3 342 -4 397 -26 31
-13 75 -41 98 -63 92 -90 118 -211 101 -483 -20 -321 -12 -513 25 -578 5 -9
140 -154 299 -323 160 -168 289 -312 287 -318 -2 -7 -98 -217 -214 -467 -116
-250 -226 -488 -245 -528 l-33 -74 32 20 c272 167 1034 612 1042 609 6 -3 184
-138 396 -301 228 -175 386 -291 388 -283 2 8 -29 229 -68 493 -38 263 -70
484 -70 491 0 6 204 155 454 330 l454 318 -504 3 -504 2 -5 23 c-2 12 -39 238
-81 502 -41 264 -77 481 -79 483 -2 2 -44 -65 -94 -150 -50 -84 -182 -308
-294 -498 l-205 -345 -59 -3 -60 -3 -22 51 c-12 28 -32 86 -44 128 -20 73 -21
98 -22 522 0 440 0 446 -23 509 -45 124 -110 191 -225 233 -69 25 -69 25 66
56 386 90 597 402 582 862 -12 363 -164 581 -475 679 -172 54 -166 54 -1132
58 l-897 4 -6 -23z m1448 -618 c210 -39 307 -187 263 -399 -32 -155 -125 -246
-301 -297 -51 -14 -120 -18 -462 -21 -396 -5 -403 -4 -403 15 0 16 135 677
144 707 5 14 683 9 759 -5z m1387 -1894 c0 -2 25 -159 55 -349 30 -189 55
-350 55 -356 0 -8 95 -11 335 -11 184 0 335 -3 335 -7 0 -5 -135 -102 -300
-217 -165 -115 -300 -210 -300 -211 0 -10 101 -695 105 -712 3 -13 2 -23 -2
-23 -5 0 -105 75 -223 166 -118 92 -248 191 -287 221 l-73 55 -366 -217 c-201
-119 -367 -215 -370 -213 -2 3 71 163 161 358 91 194 165 357 165 361 0 5 -91
104 -202 221 l-202 213 339 5 340 5 207 350 c114 193 208 353 208 358 0 4 5 7
10 7 6 0 10 -2 10 -4z"/>
</g>
</svg>
