<?xml version="1.0" standalone="no"?>
<!DOCTYPE svg PUBLIC "-//W3C//DTD SVG 20010904//EN"
 "http://www.w3.org/TR/2001/REC-SVG-20010904/DTD/svg10.dtd">
<svg version="1.0" xmlns="http://www.w3.org/2000/svg"
 width="512.000000pt" height="512.000000pt" viewBox="0 0 512.000000 512.000000"
 preserveAspectRatio="xMidYMid meet">

<g transform="translate(0.000000,512.000000) scale(0.100000,-0.100000)"
fill="#000000" stroke="none">
<path d="M159 4176 c-117 -42 -182 -165 -150 -284 14 -51 69 -115 125 -145
l41 -22 2385 0 2385 0 41 22 c56 30 111 94 125 145 26 99 -17 208 -105 263
l-49 30 -2381 2 c-1929 2 -2388 0 -2417 -11z"/>
<path d="M145 2776 c-82 -36 -145 -130 -145 -216 0 -87 64 -182 147 -217 48
-20 4778 -20 4826 0 83 35 147 130 147 217 0 87 -64 182 -147 217 -47 19
-4783 19 -4828 -1z"/>
<path d="M185 1391 c-49 -12 -89 -37 -128 -80 -93 -103 -65 -270 57 -346 l49
-30 2397 0 2397 0 49 30 c88 55 131 164 105 263 -14 51 -69 115 -125 145 l-41
22 -2365 2 c-1301 0 -2378 -2 -2395 -6z"/>
</g>
</svg>
